<svg  data-name="Layer 1" xmlns="http://www.w3.org/2000/svg" viewBox="0 0 170.8 23">
  <defs><style>.cls-1{fill:#fff;}.cls-2{fill:#78be20;}</style></defs>
  
 <path class="cls-1" d="M50,12a4.8,4.8,0,0,1,2.7,4.5c0,3.9-2.4,7-6.9,7H35.4V1.4h9.4a6.8,6.8,0,0,1,6.9,6.8A5.3,5.3,0,0,1,50,12ZM40.9,6.4V10h3.6c2.2,0,2.2-3.6,0-3.6Zm0,8.3v3.8h4.5c2.3,0,2.2-3.8,0-3.8Z" transform="translate(-1 -1)"/><path class="cls-1" d="M68,17c0-1.5-1.8-1.9-4-2-4.8-.3-8-2-8-6.8-.2-9.5,17-9.5,16.9,0H67.4c0-2.9-5.9-2.7-6.1-.1s1.5,2,3.5,2.2c4.4.5,8.7,1.1,8.7,6.7,0,9.3-18,9.4-17.9-.3H61C61,19.5,68,19.6,68,17Z" transform="translate(-1 -1)"/><path class="cls-1" d="M75.9,12.5c0-15.3,22.7-15.3,22.7,0S75.9,27.8,75.9,12.5Zm16.9,0a5.6,5.6,0,1,0-11.1,0C81.8,20.5,92.8,20.5,92.8,12.5Z" transform="translate(-1 -1)"/><path class="cls-1" d="M107.6,18.4h8v5.1H101.9V1.4h5.7Z" transform="translate(-1 -1)"/><path class="cls-1" d="M130.1,16V1.4h5.4V16.1c0,4.9-4.2,7.7-8.7,7.7S118,21,118,16.1V1.4h5.4V16c0,1.8,1.7,2.7,3.4,2.7S130.1,17.8,130.1,16Z" transform="translate(-1 -1)"/><path class="cls-1" d="M138.3,6.4V1.4h16.4V6.4h-5.4V23.5h-5.6V6.4Z" transform="translate(-1 -1)"/><path class="cls-1" d="M171.5,6.4h-8.2V9.6h7.5v5h-7.5v3.9h8.5v5H157.7V1.4h13.8Z" transform="translate(-1 -1)"/><polygon class="cls-1" points="22.6 0.4 20.3 0.4 10.1 22.5 10.5 22.5 15.9 22.5 21.4 9.2 27 22.5 32.5 22.5 32.9 22.5 22.6 0.4"/><polygon class="cls-2" points="0 22.5 10.2 0.4 15.6 0.4 5.4 22.5 0 22.5"/></svg>